Coordinates
version=1
nRows=15
nColumns=63
inDegrees=yes

Units are S.I. units (second, meters, Newtons, ...)
If the header above contains a line with 'inDegrees', this indicates whether rotational values are in degrees (yes) or radians (no).

endheader
time	pelvis_tilt	pelvis_list	pelvis_rotation	pelvis_tx	pelvis_ty	pelvis_tz	hip_flexion_r	hip_adduction_r	hip_rotation_r	knee_angle_r	knee_angle_r_beta	ankle_angle_r	subtalar_angle_r	mtp_angle_r	hip_flexion_l	hip_adduction_l	hip_rotation_l	knee_angle_l	knee_angle_l_beta	ankle_angle_l	subtalar_angle_l	mtp_angle_l	L5_S1_Flex_Ext	L5_S1_Lat_Bending	L5_S1_axial_rotation	L4_L5_Flex_Ext	L4_L5_Lat_Bending	L4_L5_axial_rotation	L3_L4_Flex_Ext	L3_L4_Lat_Bending	L3_L4_axial_rotation	L2_L3_Flex_Ext	L2_L3_Lat_Bending	L2_L3_axial_rotation	L1_L2_Flex_Ext	L1_L2_Lat_Bending	L1_L2_axial_rotation	L1_T12_Flex_Ext	L1_T12_Lat_Bending	L1_T12_axial_rotation	Abs_r3	Abs_r2	Abs_r1	Abs_t1	Abs_t2	neck_flexion	neck_bending	neck_rotation	arm_flex_r	arm_add_r	arm_rot_r	elbow_flex_r	pro_sup_r	wrist_flex_r	wrist_dev_r	arm_flex_l	arm_add_l	arm_rot_l	elbow_flex_l	pro_sup_l	wrist_flex_l	wrist_dev_l
1.474576	-2.910347	2.457378	103.108185	0.218023	0.725656	0.738807	-4.974692	-3.862016	-9.960409	1.898088	0.033128	17.902159	2.238274	0.000000	-2.816073	2.687153	3.671858	2.209585	0.038565	15.681095	6.969993	0.000000	0.347421	0.533198	-0.005532	0.645196	0.709153	-0.005878	0.570778	1.296417	-0.005878	0.397068	1.296417	-0.004840	0.322615	1.087297	-0.004495	0.198516	0.825923	-0.004149	2.481595	6.031639	-0.030767	0.000000	0.000000	28.280603	17.557072	34.532484	11.364669	-12.789067	133.539857	6.787108	4.940466	-9.134704	-0.387694	72.703989	-39.155449	-18.319698	138.770568	80.474088	28.513752	26.236135
1.491525	-2.927435	2.535886	103.161301	0.218128	0.725691	0.738816	-5.099957	-3.851207	-10.101733	1.913058	0.033389	17.874840	2.460605	0.000000	-2.906515	2.673193	3.890086	2.268087	0.039586	15.559245	6.700226	0.000000	0.333217	0.542705	-0.021739	0.618817	0.721798	-0.023097	0.547442	1.319533	-0.023097	0.380833	1.319533	-0.019021	0.309425	1.106684	-0.017663	0.190400	0.840650	-0.016304	2.380133	6.139189	-0.120903	0.000000	0.000000	28.232295	18.485988	34.738418	11.584878	-12.686062	132.891429	6.854261	5.311176	-8.464962	-0.494386	73.249678	-39.303742	-18.659609	138.514680	80.126611	29.976505	26.468598
1.508475	-2.985932	2.591267	103.199428	0.218362	0.725664	0.738950	-5.187132	-3.887711	-10.276526	1.954961	0.034121	17.912159	2.726331	0.000000	-2.965974	2.701111	4.039913	2.327759	0.040627	15.463976	6.510763	0.000000	0.312141	0.544907	-0.023330	0.579678	0.724727	-0.024788	0.512817	1.324888	-0.024788	0.356746	1.324888	-0.020414	0.289855	1.111175	-0.018955	0.178358	0.844062	-0.017497	2.229595	6.164102	-0.129753	0.000000	0.000000	28.152827	19.507511	34.974696	11.770525	-12.574719	132.594700	6.719315	5.695889	-7.813346	-0.549839	73.841884	-39.492835	-18.790528	138.181356	79.803748	30.948129	26.366651
1.525424	-3.070305	2.622154	103.223331	0.218695	0.725576	0.739204	-5.233798	-3.955285	-10.463729	2.020135	0.035258	17.991784	2.993613	0.000000	-2.991122	2.757638	4.132096	2.384538	0.041618	15.398882	6.383783	0.000000	0.286350	0.542963	-0.004829	0.531781	0.722141	-0.005131	0.470444	1.320161	-0.005131	0.327269	1.320161	-0.004226	0.265905	1.107211	-0.003924	0.163620	0.841050	-0.003622	2.045369	6.142109	-0.026860	0.000000	0.000000	28.029158	20.543741	35.273492	11.887911	-12.474555	132.674278	6.384213	5.978771	-7.246338	-0.521773	74.492050	-39.716566	-18.754804	137.758250	79.359783	31.758839	26.139726
1.542373	-3.197851	2.625287	103.236164	0.219115	0.725416	0.739526	-5.247157	-4.073304	-10.696650	2.108026	0.036792	18.125882	3.307319	0.000000	-2.988833	2.860590	4.149940	2.436342	0.042522	15.356325	6.342430	0.000000	0.257475	0.534381	0.031119	0.478158	0.710727	0.033064	0.423006	1.299294	0.033064	0.294269	1.299294	0.027229	0.239092	1.089710	0.025284	0.147121	0.827757	0.023339	1.839122	6.045027	0.173074	0.000000	0.000000	27.884627	21.611260	35.631572	11.938664	-12.380045	133.102293	5.910970	6.193435	-6.842052	-0.366019	75.156815	-40.087746	-18.490931	137.277370	79.045397	32.037278	25.609284
1.559322	-3.363829	2.600369	103.244191	0.219600	0.725179	0.739871	-5.236009	-4.236156	-10.981940	2.205717	0.038497	18.315405	3.683210	0.000000	-2.963410	3.004976	4.095640	2.482104	0.043321	15.329090	6.381421	0.000000	0.227595	0.519717	0.079697	0.422667	0.691224	0.084678	0.373916	1.263640	0.084678	0.260119	1.263640	0.069735	0.211345	1.059807	0.064754	0.130048	0.805042	0.059773	1.625690	5.879142	0.443252	0.000000	0.000000	27.735255	22.677645	36.057237	11.939208	-12.301702	133.862278	5.384941	6.393945	-6.684302	-0.076062	75.817672	-40.664637	-18.012557	136.770331	78.961717	31.720244	24.805360
1.576271	-3.569766	2.549102	103.265660	0.220103	0.724855	0.740219	-5.208315	-4.445461	-11.326874	2.308873	0.040297	18.568070	4.123122	0.000000	-2.916428	3.192517	3.932780	2.528894	0.044138	15.327952	6.563015	0.000000	0.198170	0.498718	0.133761	0.368021	0.663295	0.142121	0.325573	1.212582	0.142121	0.226488	1.212582	0.117041	0.184020	1.016985	0.108681	0.113234	0.772514	0.100321	1.415506	5.641596	0.743937	0.000000	0.000000	27.594002	23.710611	36.559296	11.914470	-12.254593	134.769052	4.908460	6.768839	-6.858050	0.285213	76.527704	-41.451872	-17.307550	136.249491	79.061598	30.855181	23.872877
1.593220	-3.805160	2.471628	103.290569	0.220559	0.724474	0.740553	-5.155831	-4.696065	-11.711132	2.425113	0.042326	18.861271	4.598496	0.000000	-2.847634	3.416783	3.700475	2.578369	0.045001	15.331047	6.830225	0.000000	0.172306	0.474233	0.199980	0.319989	0.630730	0.212479	0.283081	1.153051	0.212479	0.196928	1.153051	0.174983	0.160003	0.967056	0.162484	0.098455	0.734587	0.149985	1.230761	5.364622	1.112231	0.000000	0.000000	27.473154	24.573137	37.059832	11.826683	-12.250337	136.040567	4.413976	7.184554	-7.209658	0.722012	77.174863	-42.341132	-16.505847	135.733289	79.374120	29.642094	22.842562
1.610169	-4.049674	2.393416	103.355558	0.220945	0.724046	0.740839	-5.128109	-4.951393	-12.088313	2.512591	0.043853	19.164679	5.030544	0.000000	-2.781710	3.647720	3.381545	2.626088	0.045834	15.367778	7.245628	0.000000	0.148566	0.448297	0.262449	0.275902	0.596235	0.278852	0.244079	1.089989	0.278852	0.169796	1.089989	0.229643	0.137958	0.914167	0.213240	0.084891	0.694412	0.196837	1.061192	5.071224	1.459662	0.000000	0.000000	27.365189	25.336638	37.588039	11.723751	-12.310160	137.197501	4.081904	7.653749	-7.951112	1.100913	77.882912	-43.355612	-15.546484	135.223634	79.823378	28.174520	21.835565
1.627119	-4.312416	2.301129	103.411067	0.221301	0.723555	0.741066	-5.089260	-5.231226	-12.413465	2.599815	0.045375	19.483121	5.398978	0.000000	-2.711819	3.902932	3.009250	2.662129	0.046463	15.415127	7.715638	0.000000	0.129312	0.419579	0.333271	0.240145	0.558040	0.354100	0.212446	1.020164	0.354100	0.147790	1.020164	0.291612	0.120079	0.855605	0.270783	0.073889	0.649927	0.249953	0.923660	4.746359	1.853553	0.000000	0.000000	27.257109	25.980265	38.145247	11.578550	-12.403993	138.515528	3.812329	8.070856	-8.949236	1.507259	78.622376	-44.456143	-14.391093	134.729893	80.442302	26.303269	20.783351
1.644068	-4.574875	2.232693	103.498543	0.221589	0.723062	0.741252	-5.091305	-5.501962	-12.737121	2.666217	0.046534	19.784502	5.729360	0.000000	-2.675674	4.151563	2.665117	2.675809	0.046702	15.490472	8.213840	0.000000	0.110489	0.390838	0.402411	0.205188	0.519814	0.427561	0.181522	0.950283	0.427561	0.126277	0.950283	0.352109	0.102600	0.796996	0.326959	0.063133	0.605408	0.301808	0.789209	4.421235	2.238087	0.000000	0.000000	27.138282	26.535988	38.633430	11.395731	-12.562622	139.406620	3.651338	8.502173	-9.978245	1.831294	79.449505	-45.607572	-13.007849	134.215632	81.076818	24.125217	19.626972
1.661017	-4.827656	2.182629	103.588991	0.221812	0.722567	0.741406	-5.115536	-5.759793	-13.007995	2.722614	0.047519	20.054264	5.974425	0.000000	-2.665831	4.389682	2.339315	2.666195	0.046534	15.596302	8.726470	0.000000	0.093057	0.363739	0.471839	0.172817	0.483772	0.501329	0.152884	0.884394	0.501329	0.106355	0.884394	0.412859	0.086413	0.741736	0.383369	0.053173	0.563431	0.353879	0.664699	4.114683	2.624228	0.000000	0.000000	27.008814	27.000471	39.048876	11.192541	-12.771056	140.184572	3.566971	8.829505	-10.984819	2.158041	80.308365	-46.813193	-11.487026	133.714530	81.744550	21.768027	18.414636
1.677966	-5.061006	2.146417	103.675865	0.221989	0.722076	0.741538	-5.147933	-5.998698	-13.289950	2.780548	0.048530	20.298008	6.221032	0.000000	-2.672069	4.607985	2.026713	2.639481	0.046068	15.725030	9.256853	0.000000	0.077772	0.339113	0.537825	0.144430	0.451021	0.571439	0.127771	0.824521	0.571439	0.088885	0.824521	0.470597	0.072219	0.691520	0.436983	0.044439	0.525287	0.403369	0.555515	3.836119	2.991219	0.000000	0.000000	26.876796	27.395700	39.361700	10.975426	-13.021097	140.692925	3.557103	9.157307	-11.875046	2.510782	81.232700	-48.119106	-9.739332	133.241054	82.440111	18.951678	17.075272
1.694915	-5.265421	2.118086	103.752415	0.222119	0.721605	0.741670	-5.176833	-6.211761	-13.591201	2.839061	0.049551	20.515272	6.494488	0.000000	-2.682472	4.800329	1.787394	2.603076	0.045432	15.856263	9.715183	0.000000	0.064938	0.319259	0.597460	0.120596	0.424615	0.634802	0.106686	0.776247	0.634802	0.074217	0.776247	0.522778	0.060301	0.651033	0.485437	0.037105	0.494532	0.448095	0.463842	3.611523	3.322895	0.000000	0.000000	26.750966	27.663717	39.598868	10.748696	-13.317923	140.682957	3.588402	9.736745	-12.393930	2.933413	82.122521	-49.530460	-7.940465	132.814758	83.200414	15.871703	15.572147
1.711864	-5.427641	2.090874	103.803519	0.222218	0.721151	0.741792	-5.181590	-6.393973	-13.970391	2.913324	0.050847	20.739195	6.912689	0.000000	-2.690552	4.956803	1.632527	2.556898	0.044626	15.966558	10.044886	0.000000	0.055203	0.305549	0.645845	0.102518	0.406380	0.686210	0.090694	0.742911	0.686210	0.063092	0.742911	0.565114	0.051262	0.623075	0.524749	0.031543	0.473295	0.484383	0.394313	3.456429	3.591994	0.000000	0.000000	26.647203	27.823230	39.775393	10.540182	-13.675679	139.887345	3.709672	10.976098	-12.553146	3.445962	83.011579	-51.079552	-6.052487	132.473952	84.081849	12.248498	13.949136
